<?xml version="1.0" standalone="no"?>
<!DOCTYPE svg PUBLIC "-//W3C//DTD SVG 20010904//EN"
 "http://www.w3.org/TR/2001/REC-SVG-20010904/DTD/svg10.dtd">
<svg version="1.0" xmlns="http://www.w3.org/2000/svg"
 width="736.000000pt" height="736.000000pt" viewBox="0 0 736.000000 736.000000"
 preserveAspectRatio="xMidYMid meet">

<g transform="translate(0.000000,736.000000) scale(0.100000,-0.100000)"
fill="#000000" stroke="none">
<path d="M4871 5300 c-24 -65 -50 -90 -93 -90 -44 0 -33 -15 35 -45 34 -16
129 -59 210 -97 82 -38 151 -67 154 -64 11 10 -13 50 -90 152 -41 54 -99 120
-128 146 -30 25 -57 49 -60 52 -3 4 -16 -21 -28 -54z"/>
<path d="M4400 5222 c0 -9 21 -23 125 -80 162 -90 363 -241 466 -349 69 -73
121 -141 112 -146 -5 -3 -44 -12 -88 -21 -194 -37 -675 -169 -662 -182 2 -2
68 2 147 8 109 9 201 9 389 0 270 -13 387 -28 542 -68 124 -32 162 -34 189 -9
33 30 25 65 -41 164 -148 224 -403 409 -764 554 -162 65 -372 137 -400 137 -8
0 -15 -3 -15 -8z"/>
<path d="M1193 5137 c7 -22 140 -127 306 -241 225 -154 651 -408 651 -388 0 5
-66 78 -147 163 -127 133 -144 154 -125 157 21 3 162 -35 220 -59 13 -5 31 -9
40 -8 19 0 182 184 182 205 0 21 -56 31 -355 64 -294 32 -473 58 -615 89 -126
28 -162 32 -157 18z"/>
<path d="M3670 5044 c-14 -2 -65 -14 -115 -25 -122 -29 -295 -114 -295 -146 0
-17 -1 -17 110 12 136 35 312 50 439 36 56 -6 108 -11 116 -11 8 0 15 -4 15
-10 0 -5 -26 -10 -57 -10 -104 -1 -343 -40 -366 -60 -4 -4 74 -14 173 -24 252
-23 290 -41 153 -72 -186 -40 -533 -187 -533 -225 0 -14 23 -11 116 16 103 30
171 41 361 60 187 19 256 36 377 91 54 25 149 61 210 81 192 60 238 78 239 88
0 16 -157 90 -273 129 -156 52 -259 68 -465 71 -99 2 -191 1 -205 -1z"/>
<path d="M2252 4771 c-22 -16 -43 -35 -47 -40 -8 -13 55 -43 340 -158 306
-124 335 -142 335 -200 0 -35 38 -29 154 24 170 79 177 89 109 157 -48 48
-101 70 -213 90 -166 30 -345 74 -468 116 -65 22 -130 40 -144 40 -14 0 -43
-13 -66 -29z"/>
<path d="M4670 4786 c-69 -16 -247 -74 -365 -119 -390 -150 -792 -372 -1025
-565 -30 -25 -57 -47 -59 -49 -2 -2 -2 -5 1 -8 3 -3 115 50 249 117 310 157
588 276 1054 453 127 48 252 98 278 112 51 26 69 50 46 64 -19 12 -113 9 -179
-5z"/>
<path d="M2301 4489 c256 -253 446 -488 523 -644 57 -115 57 -118 -6 -154
-102 -57 -95 -59 82 -24 104 20 124 34 117 84 -8 58 -69 176 -131 250 -191
232 -511 514 -741 655 -16 10 54 -65 156 -167z"/>
<path d="M3635 4525 c-143 -26 -413 -103 -545 -155 -86 -33 -210 -92 -210
-100 0 -4 49 -58 109 -120 67 -70 114 -111 122 -108 8 3 50 34 94 69 232 186
357 273 510 353 129 69 134 76 55 75 -36 0 -96 -7 -135 -14z"/>
<path d="M4480 4349 c-155 -14 -461 -85 -765 -178 -229 -71 -340 -120 -237
-106 273 37 545 57 802 58 220 1 311 -5 340 -23 70 -43 -390 -237 -573 -241
-23 -1 -52 -4 -65 -7 -20 -6 -16 -12 43 -55 35 -26 102 -89 147 -140 100 -113
162 -162 258 -206 54 -25 77 -31 89 -24 9 6 46 67 83 137 80 152 162 260 288
379 118 112 204 177 365 274 71 43 130 83 132 89 7 21 -50 34 -185 44 -157 11
-596 11 -722 -1z"/>
<path d="M5315 4186 c-49 -15 -102 -42 -110 -56 -4 -7 51 -10 162 -9 123 0
189 -4 241 -16 40 -9 78 -15 85 -12 18 7 -149 83 -211 96 -67 14 -116 13 -167
-3z"/>
<path d="M1765 4126 c-258 -60 -461 -235 -557 -481 -27 -71 -31 -94 -36 -210
-8 -218 21 -329 122 -469 118 -163 286 -275 469 -312 248 -51 583 63 724 244
46 59 90 92 125 92 39 0 153 62 265 146 112 82 128 107 100 153 -29 48 -38 47
-123 -11 -106 -74 -173 -112 -182 -103 -17 17 3 258 23 279 9 8 61 18 132 26
176 18 189 27 196 120 l2 35 -45 -3 c-25 -2 -103 -10 -175 -18 l-130 -15 -22
26 c-12 14 -41 58 -64 98 -125 215 -250 317 -474 387 -89 28 -263 36 -350 16z
m216 -287 c20 -10 29 -51 22 -97 -7 -43 -36 -56 -153 -72 -185 -25 -313 23
-234 87 80 66 194 105 284 96 36 -3 72 -9 81 -14z m226 -78 c59 -47 83 -73
117 -129 33 -52 28 -72 -16 -72 -18 0 -51 -5 -73 -10 -51 -12 -77 4 -109 68
-36 72 -41 111 -16 150 11 17 26 32 34 32 8 0 36 -17 63 -39z m-602 -165 c49
-21 60 -47 41 -104 -9 -26 -22 -81 -30 -124 -17 -88 -44 -147 -82 -177 -36
-28 -49 -16 -75 71 -36 118 -19 265 39 331 18 21 61 22 107 3z m-269 -33 c-3
-16 -9 -68 -12 -118 -24 -344 262 -639 616 -636 96 1 175 21 273 71 43 22 82
40 87 40 59 0 -139 -101 -254 -130 -149 -38 -271 -23 -423 50 -138 67 -242
189 -301 352 -23 64 -27 88 -26 193 0 119 15 205 36 205 6 0 8 -11 4 -27z
m1042 -258 c9 -9 4 -56 -8 -70 -17 -20 -71 -19 -115 2 -38 18 -44 33 -20 53
29 24 124 34 143 15z m-588 -171 c100 -51 171 -109 190 -154 11 -25 10 -34 -4
-56 -19 -28 -20 -28 -136 1 -150 37 -253 97 -258 152 -4 40 52 103 93 103 15
0 67 -21 115 -46z m468 21 c28 -13 52 -30 52 -36 0 -15 -81 -94 -123 -120 -47
-28 -83 -25 -117 13 -16 17 -34 44 -41 60 -10 25 -9 32 11 53 55 59 133 70
218 30z"/>
<path d="M5220 4051 c-49 -16 -136 -64 -190 -106 -297 -229 -386 -579 -229
-901 95 -194 249 -322 454 -375 102 -26 270 -29 368 -5 206 49 372 183 473
381 42 83 46 99 56 203 16 159 1 321 -37 400 -79 163 -205 291 -364 370 l-75
37 -215 2 c-119 1 -227 -2 -241 -6z m315 -254 c15 -11 17 -23 13 -66 -3 -33
-11 -56 -22 -64 -20 -14 -220 -42 -280 -38 -44 2 -94 25 -103 47 -8 23 17 45
87 77 111 50 265 73 305 44z m179 -72 c112 -76 203 -229 176 -299 -11 -30 -62
-56 -107 -56 -27 0 -32 9 -87 128 -65 140 -80 207 -51 235 21 22 25 22 69 -8z
m-561 -167 c41 -47 6 -275 -55 -359 -16 -22 -34 -39 -41 -37 -7 2 -23 26 -37
53 -21 43 -24 64 -24 140 1 105 15 162 50 204 21 25 30 29 57 25 18 -4 40 -15
50 -26z m-248 -343 c29 -98 64 -156 139 -230 149 -147 353 -212 531 -171 38 9
115 37 169 61 55 25 101 43 104 41 7 -8 -81 -67 -138 -92 -80 -36 -196 -64
-265 -65 -220 -2 -439 140 -541 351 -56 116 -76 287 -44 375 15 40 15 39 21
-85 4 -70 14 -151 24 -185z m991 60 c15 -38 -88 -211 -159 -269 -70 -56 -85
-61 -115 -39 -14 11 -35 31 -46 46 -19 25 -19 29 -4 60 20 41 123 134 203 182
62 37 112 45 121 20z m-561 -177 c92 -50 199 -146 193 -174 -5 -26 -91 -30
-166 -9 -117 34 -242 114 -242 154 0 8 15 30 33 49 27 29 37 33 67 29 19 -3
71 -25 115 -49z"/>
<path d="M3494 3949 c-3 -6 -4 -12 -3 -13 2 -2 27 -18 54 -36 115 -78 268
-258 346 -410 29 -55 34 -75 34 -133 0 -61 -3 -70 -25 -88 -60 -46 -182 -62
-617 -79 l-251 -10 -99 -68 c-174 -121 -182 -127 -183 -134 0 -11 75 -9 130 2
25 5 217 14 428 21 392 11 923 2 1181 -21 63 -6 116 -8 119 -5 3 2 -6 31 -20
62 -37 84 -47 118 -58 208 -6 47 -17 90 -28 104 -9 13 -53 40 -97 60 -118 53
-139 69 -259 191 -107 108 -215 190 -321 242 -117 58 -321 123 -331 107z"/>
</g>
</svg>
